<svg xmlns="http://www.w3.org/2000/svg" xmlns:xlink="http://www.w3.org/1999/xlink" width="600" zoomAndPan="magnify" viewBox="0 0 1006.5 821.999993" height="400" preserveAspectRatio="xMidYMid meet" version="1.0"><defs><g/><clipPath id="f9eb420674"><path d="M 334.433594 266.175781 L 666.519531 266.175781 L 666.519531 411.605469 L 334.433594 411.605469 Z M 334.433594 266.175781 " clip-rule="nonzero"/></clipPath></defs><g clip-path="url(#f9eb420674)"><path fill="#000000" d="M 665.824219 365.113281 C 665.589844 365.078125 665.226562 365.128906 665.105469 365.277344 C 663.507812 367.230469 661.960938 369.195312 660.363281 371.128906 C 657.886719 374.140625 655.285156 377.042969 652.410156 379.707031 C 644.988281 386.589844 636.597656 392.019531 627.460938 396.300781 C 622.398438 398.667969 617.15625 400.535156 611.800781 402.082031 C 603.910156 404.347656 595.917969 406.199219 587.761719 407.332031 C 584.4375 407.796875 581.109375 407.960938 577.777344 408.28125 C 569.140625 409.078125 560.5 408.730469 551.929688 407.644531 C 542.09375 406.414062 532.523438 403.980469 523.1875 400.597656 C 510.4375 396 498.355469 389.988281 486.871094 382.804688 C 485.359375 381.875 483.660156 380.789062 482.027344 379.558594 L 487.269531 375.210938 C 500.203125 364.699219 511.835938 352.9375 521.757812 339.527344 C 525.898438 333.910156 529.664062 328.046875 532.894531 321.863281 C 535.15625 317.53125 537.167969 313.085938 538.5 308.367188 C 540.246094 302.140625 541.179688 295.859375 539.882812 289.378906 C 538.121094 280.449219 533.359375 273.800781 525.285156 269.605469 C 520.742188 267.238281 515.863281 266.339844 510.757812 266.457031 C 504.71875 266.589844 499.289062 268.421875 494.445312 272.054688 C 489.585938 275.703125 485.640625 280.136719 482.648438 285.429688 C 482.3125 286.03125 481.949219 286.613281 481.527344 287.164062 C 481.429688 287.28125 480.914062 287.28125 480.816406 287.148438 C 478.863281 284.78125 476.902344 282.429688 474.488281 280.515625 C 470.960938 277.75 467.214844 275.355469 463.171875 273.417969 C 459.644531 271.71875 455.898438 270.601562 452 270.152344 C 445.695312 269.441406 439.789062 270.617188 434.5625 274.421875 C 431.597656 276.566406 429.117188 279.183594 427.203125 282.316406 C 423.394531 288.496094 421.378906 295.257812 421.265625 302.523438 C 421.148438 309.734375 422.726562 316.632812 425.640625 323.214844 C 428.988281 330.761719 433.128906 337.859375 438.273438 344.320312 C 445.332031 353.199219 453.304688 361.164062 461.925781 368.496094 C 465.96875 371.925781 470.128906 375.191406 474.425781 378.289062 C 474.988281 378.707031 475.523438 379.15625 476.054688 379.59375 C 476.472656 379.921875 477 380.304688 477 380.304688 C 469.710938 385.039062 462.671875 389.652344 454.765625 393.300781 C 451.605469 394.75 448.410156 396.152344 445.132812 397.316406 C 434.628906 401.082031 423.878906 403.898438 412.777344 405.28125 C 403.335938 406.449219 393.902344 406.613281 384.464844 405.296875 C 382.25 404.980469 380.074219 404.546875 377.871094 404.164062 C 372.800781 403.277344 367.703125 402.53125 362.660156 401.464844 C 357.753906 400.433594 352.792969 399.800781 347.300781 398.902344 C 344.019531 398.582031 340.285156 398.3125 336.523438 398.382812 C 336.015625 398.695312 335.421875 398.917969 334.746094 399.027344 C 334.710938 399.464844 334.601562 399.914062 334.433594 400.371094 C 334.6875 400.625 334.925781 400.890625 335.148438 401.179688 C 334.632812 400.507812 334.902344 400.800781 335.253906 401.183594 C 335.621094 401.207031 336.003906 401.226562 336.421875 401.230469 C 336.941406 401.238281 337.4375 401.34375 337.914062 401.488281 C 338.597656 401.46875 339.285156 401.457031 339.976562 401.460938 C 345.132812 401.496094 350.261719 402.097656 355.355469 402.910156 C 357.136719 403.195312 358.902344 403.628906 360.679688 403.945312 C 365.339844 404.761719 370.019531 405.480469 374.660156 406.410156 C 379.71875 407.425781 384.832031 407.996094 389.957031 408.476562 C 398.179688 409.257812 406.386719 408.945312 414.523438 407.726562 C 437.34375 404.347656 458.246094 396.015625 477.320312 383.035156 C 478.035156 382.558594 478.703125 382.039062 479.382812 381.503906 C 488.886719 387.585938 501.039062 394.464844 511.386719 398.898438 C 525.949219 405.109375 540.980469 409.476562 556.839844 410.726562 C 566.046875 411.460938 575.230469 411.160156 584.367188 410.125 C 592.539062 409.210938 600.5625 407.445312 608.484375 405.210938 C 617.375 402.730469 625.925781 399.464844 634.085938 395.117188 C 646.601562 388.4375 656.984375 379.324219 665.339844 367.894531 C 665.753906 367.34375 666.039062 366.695312 666.355469 366.078125 C 666.507812 365.746094 666.253906 365.113281 665.824219 365.113281 Z M 479.765625 378.074219 C 466.703125 368.675781 453.238281 356.75 443.167969 344.136719 C 438.640625 338.472656 434.777344 332.359375 431.53125 325.847656 C 429.285156 321.328125 427.554688 316.652344 426.605469 311.6875 C 425.441406 305.589844 425.308594 299.507812 427.039062 293.476562 C 427.886719 290.527344 429.070312 287.710938 430.667969 285.066406 C 431.730469 283.265625 433.03125 281.632812 434.496094 280.117188 C 438.355469 276.101562 443.085938 274.085938 448.644531 273.917969 C 452.171875 273.800781 455.566406 274.285156 458.914062 275.417969 C 464.65625 277.367188 469.796875 280.363281 474.390625 284.296875 C 476.1875 285.828125 477.820312 287.5625 479.019531 289.648438 C 479.546875 290.5625 479.683594 291.429688 479.246094 292.414062 C 479.097656 292.761719 479.066406 293.261719 479.183594 293.574219 C 479.316406 293.910156 479.699219 294.195312 480.046875 294.359375 C 480.214844 294.445312 480.613281 294.292969 480.78125 294.125 C 481.160156 293.746094 481.542969 293.3125 481.8125 292.84375 C 484.339844 288.316406 487.621094 284.347656 490.714844 280.214844 C 492.398438 277.984375 494.429688 276.066406 496.675781 274.40625 C 502.796875 269.855469 509.605469 268.15625 517.164062 269.519531 C 520.941406 270.203125 524.421875 271.472656 527.546875 273.671875 C 532.558594 277.171875 535.703125 281.964844 537.265625 287.832031 C 537.984375 290.53125 538.382812 293.296875 538.25 295.613281 C 538.25 301.339844 537.015625 306.339844 535.289062 311.203125 C 533.871094 315.152344 532.042969 318.898438 530.042969 322.582031 C 525.386719 331.195312 519.757812 339.140625 513.519531 346.652344 C 504.3125 357.734375 493.878906 367.53125 482.460938 376.308594 C 481.792969 376.824219 480.597656 377.742188 479.882812 378.140625 Z M 479.765625 378.074219 " fill-opacity="1" fill-rule="nonzero"/></g><g fill="#000000" fill-opacity="1"><g transform="translate(268.477403, 491.772694)"><g><path d="M 12.484375 -5.9375 L 28.46875 -5.9375 L 28.46875 0 L 1.90625 0 L 17.78125 -25.296875 L 8.28125 -25.296875 C 7.3125 -25.296875 6.378906 -25.597656 5.484375 -26.203125 C 4.597656 -26.816406 4.15625 -27.53125 4.15625 -28.34375 L 4.15625 -32.796875 L 9.796875 -32.796875 L 9.796875 -32.203125 C 9.796875 -31.722656 9.851562 -31.429688 9.96875 -31.328125 C 10.082031 -31.234375 10.265625 -31.191406 10.515625 -31.203125 C 10.773438 -31.222656 10.988281 -31.234375 11.15625 -31.234375 L 28.515625 -31.234375 Z M 12.484375 -5.9375 "/></g></g></g><g fill="#000000" fill-opacity="1"><g transform="translate(308.749656, 491.772694)"><g><path d="M 19.484375 -6.109375 L 9.125 -6.109375 L 6.578125 0 L 0.515625 0 L 14.59375 -32.46875 L 14.9375 -32.46875 L 29.03125 0 L 21.890625 0 Z M 17.4375 -11.28125 L 14.421875 -18.890625 L 11.28125 -11.28125 Z M 17.4375 -11.28125 "/></g></g></g><g fill="#000000" fill-opacity="1"><g transform="translate(347.918572, 491.772694)"><g><path d="M 30 1.359375 L 22.578125 -17.140625 L 13.921875 1.4375 L 1.359375 -31.015625 L 8.578125 -31.015625 L 14.71875 -12.9375 L 19.484375 -24.875 L 17.015625 -31.015625 L 23.125 -31.015625 L 30.125 -13.671875 L 35.4375 -31.015625 L 42.0625 -31.015625 Z M 30 1.359375 "/></g></g></g><g fill="#000000" fill-opacity="1"><g transform="translate(400.964056, 491.772694)"><g><path d="M 19.484375 -6.109375 L 9.125 -6.109375 L 6.578125 0 L 0.515625 0 L 14.59375 -32.46875 L 14.9375 -32.46875 L 29.03125 0 L 21.890625 0 Z M 17.4375 -11.28125 L 14.421875 -18.890625 L 11.28125 -11.28125 Z M 17.4375 -11.28125 "/></g></g></g><g fill="#000000" fill-opacity="1"><g transform="translate(440.132967, 491.772694)"><g><path d="M 4.03125 -31.234375 L 13.375 -31.234375 C 17.351562 -31.234375 20.628906 -30.460938 23.203125 -28.921875 C 25.785156 -27.378906 27.660156 -25.382812 28.828125 -22.9375 C 30.003906 -20.488281 30.59375 -17.863281 30.59375 -15.0625 C 30.59375 -12.0625 29.882812 -9.414062 28.46875 -7.125 C 27.0625 -4.832031 25.160156 -3.070312 22.765625 -1.84375 C 20.378906 -0.613281 17.753906 0 14.890625 0 L 4.03125 0 Z M 13.828125 -5.9375 C 17.023438 -5.9375 19.554688 -6.753906 21.421875 -8.390625 C 23.296875 -10.035156 24.234375 -12.398438 24.234375 -15.484375 C 24.234375 -17.972656 23.71875 -19.953125 22.6875 -21.421875 C 21.65625 -22.898438 20.453125 -23.921875 19.078125 -24.484375 C 17.703125 -25.046875 16.40625 -25.328125 15.1875 -25.328125 L 10.1875 -25.328125 L 10.1875 -5.9375 Z M 13.828125 -5.9375 "/></g></g></g><g fill="#000000" fill-opacity="1"><g transform="translate(482.484591, 491.772694)"><g><path d="M 10.1875 -31.234375 L 10.1875 0 L 4.03125 0 L 4.03125 -31.234375 Z M 10.1875 -31.234375 "/></g></g></g><g fill="#000000" fill-opacity="1"><g transform="translate(506.334132, 491.772694)"><g/></g></g><g fill="#000000" fill-opacity="1"><g transform="translate(529.759307, 491.772694)"><g><path d="M 20.703125 -23.6875 C 17.992188 -25.175781 15.632812 -25.921875 13.625 -25.921875 C 12.257812 -25.921875 11.203125 -25.648438 10.453125 -25.109375 C 9.710938 -24.578125 9.34375 -23.773438 9.34375 -22.703125 C 9.34375 -21.710938 9.882812 -20.84375 10.96875 -20.09375 C 12.0625 -19.34375 13.507812 -18.628906 15.3125 -17.953125 C 16.789062 -17.410156 18.050781 -16.789062 19.09375 -16.09375 C 20.144531 -15.40625 21.015625 -14.453125 21.703125 -13.234375 C 22.398438 -12.023438 22.75 -10.484375 22.75 -8.609375 C 22.75 -7.003906 22.332031 -5.515625 21.5 -4.140625 C 20.664062 -2.765625 19.441406 -1.671875 17.828125 -0.859375 C 16.210938 -0.0546875 14.285156 0.34375 12.046875 0.34375 C 10.179688 0.34375 8.328125 0.0664062 6.484375 -0.484375 C 4.648438 -1.035156 2.941406 -1.878906 1.359375 -3.015625 L 4.078125 -7.8125 C 5.148438 -7.019531 6.378906 -6.367188 7.765625 -5.859375 C 9.148438 -5.347656 10.394531 -5.09375 11.5 -5.09375 C 12.800781 -5.09375 13.929688 -5.367188 14.890625 -5.921875 C 15.859375 -6.472656 16.34375 -7.367188 16.34375 -8.609375 C 16.34375 -10.222656 14.828125 -11.625 11.796875 -12.8125 C 10.015625 -13.519531 8.53125 -14.195312 7.34375 -14.84375 C 6.15625 -15.5 5.128906 -16.4375 4.265625 -17.65625 C 3.398438 -18.875 2.96875 -20.398438 2.96875 -22.234375 C 2.96875 -24.921875 3.851562 -27.082031 5.625 -28.71875 C 7.394531 -30.363281 9.75 -31.257812 12.6875 -31.40625 C 15.007812 -31.40625 16.945312 -31.140625 18.5 -30.609375 C 20.0625 -30.085938 21.578125 -29.347656 23.046875 -28.390625 Z M 20.703125 -23.6875 "/></g></g></g><g fill="#000000" fill-opacity="1"><g transform="translate(564.132961, 491.772694)"><g><path d="M 36.203125 -32.5 L 36.203125 0 L 30.046875 0 L 30.046875 -14.890625 L 19.859375 -0.421875 L 19.78125 -0.421875 L 9.96875 -13.96875 L 9.96875 0 L 4.03125 0 L 4.03125 -32.5 L 4.078125 -32.5 L 19.90625 -10.0625 L 36.109375 -32.5 Z M 36.203125 -32.5 "/></g></g></g><g fill="#000000" fill-opacity="1"><g transform="translate(613.995754, 491.772694)"><g><path d="M 10.1875 -31.234375 L 10.1875 0 L 4.03125 0 L 4.03125 -31.234375 Z M 10.1875 -31.234375 "/></g></g></g><g fill="#000000" fill-opacity="1"><g transform="translate(637.845295, 491.772694)"><g><path d="M 10.1875 -31.234375 L 10.1875 -5.9375 L 24.875 -5.9375 L 24.875 0 L 4.03125 0 L 4.03125 -31.234375 Z M 10.1875 -31.234375 "/></g></g></g><g fill="#000000" fill-opacity="1"><g transform="translate(674.680244, 491.772694)"><g><path d="M 25.328125 -31.234375 L 25.328125 -25.296875 L 10.1875 -25.296875 L 10.1875 -18.625 L 23.59375 -18.625 L 23.59375 -12.6875 L 10.1875 -12.6875 L 10.1875 -5.9375 L 25.921875 -5.9375 L 25.921875 0 L 4.03125 0 L 4.03125 -31.234375 Z M 25.328125 -31.234375 "/></g></g></g><g fill="#000000" fill-opacity="1"><g transform="translate(712.576104, 491.772694)"><g><path d="M 20.703125 -23.6875 C 17.992188 -25.175781 15.632812 -25.921875 13.625 -25.921875 C 12.257812 -25.921875 11.203125 -25.648438 10.453125 -25.109375 C 9.710938 -24.578125 9.34375 -23.773438 9.34375 -22.703125 C 9.34375 -21.710938 9.882812 -20.84375 10.96875 -20.09375 C 12.0625 -19.34375 13.507812 -18.628906 15.3125 -17.953125 C 16.789062 -17.410156 18.050781 -16.789062 19.09375 -16.09375 C 20.144531 -15.40625 21.015625 -14.453125 21.703125 -13.234375 C 22.398438 -12.023438 22.75 -10.484375 22.75 -8.609375 C 22.75 -7.003906 22.332031 -5.515625 21.5 -4.140625 C 20.664062 -2.765625 19.441406 -1.671875 17.828125 -0.859375 C 16.210938 -0.0546875 14.285156 0.34375 12.046875 0.34375 C 10.179688 0.34375 8.328125 0.0664062 6.484375 -0.484375 C 4.648438 -1.035156 2.941406 -1.878906 1.359375 -3.015625 L 4.078125 -7.8125 C 5.148438 -7.019531 6.378906 -6.367188 7.765625 -5.859375 C 9.148438 -5.347656 10.394531 -5.09375 11.5 -5.09375 C 12.800781 -5.09375 13.929688 -5.367188 14.890625 -5.921875 C 15.859375 -6.472656 16.34375 -7.367188 16.34375 -8.609375 C 16.34375 -10.222656 14.828125 -11.625 11.796875 -12.8125 C 10.015625 -13.519531 8.53125 -14.195312 7.34375 -14.84375 C 6.15625 -15.5 5.128906 -16.4375 4.265625 -17.65625 C 3.398438 -18.875 2.96875 -20.398438 2.96875 -22.234375 C 2.96875 -24.921875 3.851562 -27.082031 5.625 -28.71875 C 7.394531 -30.363281 9.75 -31.257812 12.6875 -31.40625 C 15.007812 -31.40625 16.945312 -31.140625 18.5 -30.609375 C 20.0625 -30.085938 21.578125 -29.347656 23.046875 -28.390625 Z M 20.703125 -23.6875 "/></g></g></g><g fill="#000000" fill-opacity="1"><g transform="translate(264.00072, 432.550504)"><g><path d="M 3.546875 15.78125 C 2.242188 15.78125 1.238281 15.25 0.53125 14.1875 C -0.0625 13.238281 -0.210938 12.289062 0.078125 11.34375 C 0.378906 10.394531 0.828125 9.507812 1.421875 8.6875 C 4.609375 2.894531 8.359375 -2.476562 12.671875 -7.4375 C 16.984375 -12.40625 21.445312 -17.195312 26.0625 -21.8125 L 68.96875 -65.953125 C 71.207031 -68.191406 73.773438 -70.878906 76.671875 -74.015625 C 79.566406 -77.148438 82.285156 -80.398438 84.828125 -83.765625 C 87.367188 -87.128906 89.226562 -90.234375 90.40625 -93.078125 C 91 -94.960938 91.054688 -96.378906 90.578125 -97.328125 C 90.109375 -98.273438 88.875 -98.984375 86.875 -99.453125 C 86.15625 -99.691406 85.5625 -99.8125 85.09375 -99.8125 C 84.738281 -99.8125 84.382812 -99.8125 84.03125 -99.8125 C 83.675781 -99.8125 83.378906 -99.8125 83.140625 -99.8125 C 82.910156 -99.8125 82.644531 -99.8125 82.34375 -99.8125 C 82.050781 -99.8125 81.785156 -99.8125 81.546875 -99.8125 C 80.835938 -99.8125 80.304688 -99.75 79.953125 -99.625 C 71.921875 -98.445312 64.09375 -96.820312 56.46875 -94.75 C 48.84375 -92.6875 41.425781 -89.765625 34.21875 -85.984375 L 32.09375 -84.921875 C 31.96875 -84.796875 31.613281 -84.734375 31.03125 -84.734375 C 30.3125 -84.734375 29.773438 -84.972656 29.421875 -85.453125 C 28.597656 -86.398438 28.773438 -87.226562 29.953125 -87.9375 C 31.960938 -89.9375 35.269531 -91.910156 39.875 -93.859375 C 44.488281 -95.816406 49.570312 -97.59375 55.125 -99.1875 C 60.6875 -100.78125 65.976562 -102.050781 71 -103 C 76.019531 -103.945312 80.007812 -104.421875 82.96875 -104.421875 C 84.03125 -104.421875 85.09375 -104.359375 86.15625 -104.234375 C 87.21875 -104.117188 88.28125 -103.882812 89.34375 -103.53125 C 94.90625 -101.757812 96.796875 -98.035156 95.015625 -92.359375 C 94.304688 -90.234375 93.035156 -87.78125 91.203125 -85 C 89.378906 -82.226562 87.285156 -79.421875 84.921875 -76.578125 C 82.554688 -73.742188 80.21875 -71.085938 77.90625 -68.609375 C 75.601562 -66.128906 73.6875 -64.117188 72.15625 -62.578125 L 26.0625 -15.25 C 24.875 -14.0625 23.273438 -12.40625 21.265625 -10.28125 C 19.265625 -8.15625 17.226562 -5.820312 15.15625 -3.28125 C 13.09375 -0.738281 11.257812 1.679688 9.65625 3.984375 C 8.0625 6.296875 7.085938 8.273438 6.734375 9.921875 C 8.503906 9.804688 10.28125 9.335938 12.0625 8.515625 C 12.882812 8.160156 13.648438 7.800781 14.359375 7.4375 C 15.066406 7.082031 15.835938 6.789062 16.671875 6.5625 C 19.023438 5.5 21.382812 4.429688 23.75 3.359375 C 26.113281 2.296875 28.476562 1.234375 30.84375 0.171875 C 33.207031 -0.890625 35.597656 -1.953125 38.015625 -3.015625 C 40.441406 -4.078125 42.835938 -5.082031 45.203125 -6.03125 C 52.296875 -9.101562 59.535156 -11.523438 66.921875 -13.296875 C 74.304688 -15.066406 81.78125 -16.660156 89.34375 -18.078125 C 89.46875 -18.203125 89.882812 -18.265625 90.59375 -18.265625 C 91.1875 -18.265625 91.539062 -18.203125 91.65625 -18.078125 C 92.363281 -17.847656 92.773438 -17.257812 92.890625 -16.3125 C 93.242188 -15.601562 92.953125 -14.953125 92.015625 -14.359375 C 91.535156 -14.242188 91.117188 -14.125 90.765625 -14 C 90.410156 -13.882812 90.054688 -13.769531 89.703125 -13.65625 C 89.234375 -13.53125 88.789062 -13.410156 88.375 -13.296875 C 87.957031 -13.179688 87.515625 -13.0625 87.046875 -12.9375 L 72.328125 -9.921875 C 67.015625 -8.742188 61.816406 -7.238281 56.734375 -5.40625 C 51.648438 -3.570312 46.625 -1.59375 41.65625 0.53125 C 38.113281 2.070312 34.566406 3.609375 31.015625 5.140625 C 27.472656 6.679688 23.929688 8.273438 20.390625 9.921875 C 19.203125 10.398438 18.046875 10.875 16.921875 11.34375 C 15.804688 11.820312 14.65625 12.351562 13.46875 12.9375 C 12.289062 13.414062 11.140625 13.859375 10.015625 14.265625 C 8.890625 14.679688 7.675781 15.007812 6.375 15.25 C 6.144531 15.363281 5.910156 15.421875 5.671875 15.421875 C 5.429688 15.421875 5.195312 15.476562 4.96875 15.59375 C 4.613281 15.71875 4.140625 15.78125 3.546875 15.78125 Z M 3.546875 15.78125 "/></g></g></g><g fill="#000000" fill-opacity="1"><g transform="translate(181.353739, 555.650895)"><g><path d="M 16.90625 -2.390625 C 15.0625 -0.859375 12.957031 -0.09375 10.59375 -0.09375 C 7.914062 -0.09375 5.625 -1.039062 3.71875 -2.9375 C 1.820312 -4.84375 0.875 -7.128906 0.875 -9.796875 C 0.875 -12.492188 1.820312 -14.796875 3.71875 -16.703125 C 5.625 -18.597656 7.914062 -19.546875 10.59375 -19.546875 C 12.976562 -19.546875 15.082031 -18.769531 16.90625 -17.21875 L 14 -14.34375 C 13.007812 -15.101562 11.875 -15.484375 10.59375 -15.484375 C 9.039062 -15.484375 7.710938 -14.925781 6.609375 -13.8125 C 5.503906 -12.707031 4.953125 -11.367188 4.953125 -9.796875 C 4.953125 -8.253906 5.503906 -6.925781 6.609375 -5.8125 C 7.710938 -4.707031 9.039062 -4.15625 10.59375 -4.15625 C 11.875 -4.15625 13.007812 -4.535156 14 -5.296875 Z M 16.90625 -2.390625 "/></g></g></g><g fill="#000000" fill-opacity="1"><g transform="translate(206.601865, 555.650895)"><g><path d="M 15.390625 0 L 14.015625 -2.640625 L 6.890625 -2.640625 L 5.53125 0 L 0.296875 0 L 10.46875 -18.90625 L 20.625 0 Z M 12.1875 -6.203125 L 10.46875 -9.515625 L 8.734375 -6.203125 Z M 12.1875 -6.203125 "/></g></g></g><g fill="#000000" fill-opacity="1"><g transform="translate(234.11848, 555.650895)"><g><path d="M 16.671875 -12.453125 C 16.671875 -11.234375 16.359375 -10.097656 15.734375 -9.046875 C 14.984375 -7.804688 13.921875 -6.941406 12.546875 -6.453125 L 16.609375 0 L 11.515625 0 L 7.5625 -6.015625 L 5.40625 -6.015625 L 5.40625 0 L 0.875 0 L 0.875 -18.90625 L 9.921875 -18.90625 C 12.078125 -18.90625 13.785156 -18.195312 15.046875 -16.78125 C 16.128906 -15.539062 16.671875 -14.097656 16.671875 -12.453125 Z M 5.40625 -14.84375 L 5.40625 -10.09375 L 9.890625 -10.09375 C 10.515625 -10.09375 11.007812 -10.179688 11.375 -10.359375 C 11.6875 -10.535156 11.910156 -10.703125 12.046875 -10.859375 C 12.234375 -11.085938 12.378906 -11.359375 12.484375 -11.671875 C 12.554688 -11.941406 12.59375 -12.203125 12.59375 -12.453125 C 12.59375 -12.722656 12.554688 -12.992188 12.484375 -13.265625 C 12.367188 -13.578125 12.203125 -13.847656 11.984375 -14.078125 C 11.554688 -14.585938 10.867188 -14.84375 9.921875 -14.84375 Z M 5.40625 -14.84375 "/></g></g></g><g fill="#000000" fill-opacity="1"><g transform="translate(258.261438, 555.650895)"><g><path d="M 0.4375 -18.90625 L 4.96875 -18.90625 L 4.96875 0 L 0.4375 0 Z M 0.4375 -18.90625 "/></g></g></g><g fill="#000000" fill-opacity="1"><g transform="translate(270.276686, 555.650895)"><g><path d="M 13.234375 -18.90625 L 17.78125 -18.90625 L 17.78125 0 L 5.234375 -9.21875 L 5.234375 0 L 0.703125 0 L 0.703125 -18.90625 L 13.234375 -9.25 Z M 13.234375 -18.90625 "/></g></g></g><g fill="#000000" fill-opacity="1"><g transform="translate(295.350308, 555.650895)"><g><path d="M 20.078125 -10.96875 L 20.078125 0 L 16.296875 0 L 16.296875 -1.515625 C 14.609375 -0.304688 12.71875 0.296875 10.625 0.296875 C 7.925781 0.296875 5.625 -0.65625 3.71875 -2.5625 C 1.820312 -4.457031 0.875 -6.753906 0.875 -9.453125 C 0.875 -12.148438 1.820312 -14.445312 3.71875 -16.34375 C 5.625 -18.25 7.925781 -19.203125 10.625 -19.203125 C 13.03125 -19.203125 15.144531 -18.425781 16.96875 -16.875 L 14.046875 -14 C 13.023438 -14.75 11.882812 -15.125 10.625 -15.125 C 9.03125 -15.125 7.703125 -14.570312 6.640625 -13.46875 C 5.515625 -12.34375 4.953125 -11.003906 4.953125 -9.453125 C 4.953125 -7.898438 5.515625 -6.5625 6.640625 -5.4375 C 7.742188 -4.332031 9.070312 -3.78125 10.625 -3.78125 C 12.15625 -3.78125 13.492188 -4.332031 14.640625 -5.4375 C 14.671875 -5.476562 14.707031 -5.519531 14.75 -5.5625 L 14.890625 -5.703125 C 15.023438 -5.859375 15.15625 -6.003906 15.28125 -6.140625 C 15.601562 -6.546875 15.820312 -6.894531 15.9375 -7.1875 L 11.578125 -7.1875 L 11.578125 -10.96875 Z M 16.265625 -7.1875 L 16.296875 -7.15625 L 16.296875 -7.1875 Z M 16.265625 -7.1875 "/></g></g></g><g fill="#000000" fill-opacity="1"><g transform="translate(322.896011, 555.650895)"><g/></g></g><g fill="#000000" fill-opacity="1"><g transform="translate(337.063418, 555.650895)"><g><path d="M 12.5625 -14.84375 L 5.40625 -14.84375 L 5.40625 -11.484375 L 10.734375 -11.484375 L 10.734375 -7.421875 L 5.40625 -7.421875 L 5.40625 0 L 0.875 0 L 0.875 -18.90625 L 12.5625 -18.90625 Z M 12.5625 -14.84375 "/></g></g></g><g fill="#000000" fill-opacity="1"><g transform="translate(357.105638, 555.650895)"><g><path d="M 10.1875 -18.828125 C 12.882812 -18.828125 15.179688 -17.875 17.078125 -15.96875 C 18.972656 -14.070312 19.921875 -11.773438 19.921875 -9.078125 C 19.921875 -6.378906 18.972656 -4.082031 17.078125 -2.1875 C 15.179688 -0.28125 12.882812 0.671875 10.1875 0.671875 C 7.488281 0.671875 5.1875 -0.28125 3.28125 -2.1875 C 1.382812 -4.082031 0.4375 -6.378906 0.4375 -9.078125 C 0.4375 -11.773438 1.382812 -14.070312 3.28125 -15.96875 C 5.1875 -17.875 7.488281 -18.828125 10.1875 -18.828125 Z M 14.203125 -5.0625 C 15.304688 -6.164062 15.859375 -7.503906 15.859375 -9.078125 C 15.859375 -10.648438 15.304688 -11.988281 14.203125 -13.09375 C 13.097656 -14.195312 11.757812 -14.75 10.1875 -14.75 C 8.613281 -14.75 7.273438 -14.195312 6.171875 -13.09375 C 5.066406 -11.988281 4.515625 -10.648438 4.515625 -9.078125 C 4.515625 -7.503906 5.066406 -6.164062 6.171875 -5.0625 C 7.316406 -3.957031 8.65625 -3.40625 10.1875 -3.40625 C 11.71875 -3.40625 13.054688 -3.957031 14.203125 -5.0625 Z M 14.203125 -5.0625 "/></g></g></g><g fill="#000000" fill-opacity="1"><g transform="translate(384.069663, 555.650895)"><g><path d="M 16.671875 -12.453125 C 16.671875 -11.234375 16.359375 -10.097656 15.734375 -9.046875 C 14.984375 -7.804688 13.921875 -6.941406 12.546875 -6.453125 L 16.609375 0 L 11.515625 0 L 7.5625 -6.015625 L 5.40625 -6.015625 L 5.40625 0 L 0.875 0 L 0.875 -18.90625 L 9.921875 -18.90625 C 12.078125 -18.90625 13.785156 -18.195312 15.046875 -16.78125 C 16.128906 -15.539062 16.671875 -14.097656 16.671875 -12.453125 Z M 5.40625 -14.84375 L 5.40625 -10.09375 L 9.890625 -10.09375 C 10.515625 -10.09375 11.007812 -10.179688 11.375 -10.359375 C 11.6875 -10.535156 11.910156 -10.703125 12.046875 -10.859375 C 12.234375 -11.085938 12.378906 -11.359375 12.484375 -11.671875 C 12.554688 -11.941406 12.59375 -12.203125 12.59375 -12.453125 C 12.59375 -12.722656 12.554688 -12.992188 12.484375 -13.265625 C 12.367188 -13.578125 12.203125 -13.847656 11.984375 -14.078125 C 11.554688 -14.585938 10.867188 -14.84375 9.921875 -14.84375 Z M 5.40625 -14.84375 "/></g></g></g><g fill="#000000" fill-opacity="1"><g transform="translate(408.212621, 555.650895)"><g/></g></g><g fill="#000000" fill-opacity="1"><g transform="translate(422.380028, 555.650895)"><g><path d="M 20.625 -18.90625 L 13 -9.78125 L 13 0 L 8.46875 0 L 8.46875 -9.78125 L 0.875 -18.90625 L 6.84375 -18.90625 L 10.765625 -14.171875 L 14.65625 -18.90625 Z M 20.625 -18.90625 "/></g></g></g><g fill="#000000" fill-opacity="1"><g transform="translate(450.47832, 555.650895)"><g><path d="M 10.1875 -18.828125 C 12.882812 -18.828125 15.179688 -17.875 17.078125 -15.96875 C 18.972656 -14.070312 19.921875 -11.773438 19.921875 -9.078125 C 19.921875 -6.378906 18.972656 -4.082031 17.078125 -2.1875 C 15.179688 -0.28125 12.882812 0.671875 10.1875 0.671875 C 7.488281 0.671875 5.1875 -0.28125 3.28125 -2.1875 C 1.382812 -4.082031 0.4375 -6.378906 0.4375 -9.078125 C 0.4375 -11.773438 1.382812 -14.070312 3.28125 -15.96875 C 5.1875 -17.875 7.488281 -18.828125 10.1875 -18.828125 Z M 14.203125 -5.0625 C 15.304688 -6.164062 15.859375 -7.503906 15.859375 -9.078125 C 15.859375 -10.648438 15.304688 -11.988281 14.203125 -13.09375 C 13.097656 -14.195312 11.757812 -14.75 10.1875 -14.75 C 8.613281 -14.75 7.273438 -14.195312 6.171875 -13.09375 C 5.066406 -11.988281 4.515625 -10.648438 4.515625 -9.078125 C 4.515625 -7.503906 5.066406 -6.164062 6.171875 -5.0625 C 7.316406 -3.957031 8.65625 -3.40625 10.1875 -3.40625 C 11.71875 -3.40625 13.054688 -3.957031 14.203125 -5.0625 Z M 14.203125 -5.0625 "/></g></g></g><g fill="#000000" fill-opacity="1"><g transform="translate(477.442357, 555.650895)"><g><path d="M 12.828125 -18.90625 L 17.046875 -18.90625 L 17.046875 -8 C 17.046875 -5.632812 16.15625 -3.664062 14.375 -2.09375 C 12.757812 -0.695312 10.945312 0 8.9375 0 C 6.988281 0 5.222656 -0.675781 3.640625 -2.03125 C 1.796875 -3.582031 0.875 -5.59375 0.875 -8.0625 L 0.875 -18.90625 L 5.09375 -18.90625 L 5.09375 -8.0625 C 5.09375 -6.894531 5.507812 -5.960938 6.34375 -5.265625 C 6.726562 -4.921875 7.179688 -4.660156 7.703125 -4.484375 C 8.148438 -4.304688 8.5625 -4.21875 8.9375 -4.21875 C 9.28125 -4.21875 9.710938 -4.304688 10.234375 -4.484375 C 10.816406 -4.710938 11.273438 -4.984375 11.609375 -5.296875 C 12.035156 -5.679688 12.335938 -6.066406 12.515625 -6.453125 C 12.722656 -6.878906 12.828125 -7.394531 12.828125 -8 Z M 12.828125 -18.90625 "/></g></g></g><g fill="#000000" fill-opacity="1"><g transform="translate(501.9634, 555.650895)"><g><path d="M 0.875 -4.078125 L 4.953125 -4.078125 L 4.953125 0 L 3.84375 2.46875 L 1.75 2.46875 L 2.875 0 L 0.875 0 Z M 0.875 -4.078125 "/></g></g></g><g fill="#000000" fill-opacity="1"><g transform="translate(514.38581, 555.650895)"><g><path d="M 16.90625 -2.390625 C 15.0625 -0.859375 12.957031 -0.09375 10.59375 -0.09375 C 7.914062 -0.09375 5.625 -1.039062 3.71875 -2.9375 C 1.820312 -4.84375 0.875 -7.128906 0.875 -9.796875 C 0.875 -12.492188 1.820312 -14.796875 3.71875 -16.703125 C 5.625 -18.597656 7.914062 -19.546875 10.59375 -19.546875 C 12.976562 -19.546875 15.082031 -18.769531 16.90625 -17.21875 L 14 -14.34375 C 13.007812 -15.101562 11.875 -15.484375 10.59375 -15.484375 C 9.039062 -15.484375 7.710938 -14.925781 6.609375 -13.8125 C 5.503906 -12.707031 4.953125 -11.367188 4.953125 -9.796875 C 4.953125 -8.253906 5.503906 -6.925781 6.609375 -5.8125 C 7.710938 -4.707031 9.039062 -4.15625 10.59375 -4.15625 C 11.875 -4.15625 13.007812 -4.535156 14 -5.296875 Z M 16.90625 -2.390625 "/></g></g></g><g fill="#000000" fill-opacity="1"><g transform="translate(539.633947, 555.650895)"><g><path d="M 15.390625 0 L 14.015625 -2.640625 L 6.890625 -2.640625 L 5.53125 0 L 0.296875 0 L 10.46875 -18.90625 L 20.625 0 Z M 12.1875 -6.203125 L 10.46875 -9.515625 L 8.734375 -6.203125 Z M 12.1875 -6.203125 "/></g></g></g><g fill="#000000" fill-opacity="1"><g transform="translate(567.15055, 555.650895)"><g><path d="M 16.671875 -12.453125 C 16.671875 -11.234375 16.359375 -10.097656 15.734375 -9.046875 C 14.984375 -7.804688 13.921875 -6.941406 12.546875 -6.453125 L 16.609375 0 L 11.515625 0 L 7.5625 -6.015625 L 5.40625 -6.015625 L 5.40625 0 L 0.875 0 L 0.875 -18.90625 L 9.921875 -18.90625 C 12.078125 -18.90625 13.785156 -18.195312 15.046875 -16.78125 C 16.128906 -15.539062 16.671875 -14.097656 16.671875 -12.453125 Z M 5.40625 -14.84375 L 5.40625 -10.09375 L 9.890625 -10.09375 C 10.515625 -10.09375 11.007812 -10.179688 11.375 -10.359375 C 11.6875 -10.535156 11.910156 -10.703125 12.046875 -10.859375 C 12.234375 -11.085938 12.378906 -11.359375 12.484375 -11.671875 C 12.554688 -11.941406 12.59375 -12.203125 12.59375 -12.453125 C 12.59375 -12.722656 12.554688 -12.992188 12.484375 -13.265625 C 12.367188 -13.578125 12.203125 -13.847656 11.984375 -14.078125 C 11.554688 -14.585938 10.867188 -14.84375 9.921875 -14.84375 Z M 5.40625 -14.84375 "/></g></g></g><g fill="#000000" fill-opacity="1"><g transform="translate(591.293509, 555.650895)"><g><path d="M 0.4375 -18.90625 L 4.96875 -18.90625 L 4.96875 0 L 0.4375 0 Z M 0.4375 -18.90625 "/></g></g></g><g fill="#000000" fill-opacity="1"><g transform="translate(603.308779, 555.650895)"><g><path d="M 13.234375 -18.90625 L 17.78125 -18.90625 L 17.78125 0 L 5.234375 -9.21875 L 5.234375 0 L 0.703125 0 L 0.703125 -18.90625 L 13.234375 -9.25 Z M 13.234375 -18.90625 "/></g></g></g><g fill="#000000" fill-opacity="1"><g transform="translate(628.382413, 555.650895)"><g><path d="M 20.078125 -10.96875 L 20.078125 0 L 16.296875 0 L 16.296875 -1.515625 C 14.609375 -0.304688 12.71875 0.296875 10.625 0.296875 C 7.925781 0.296875 5.625 -0.65625 3.71875 -2.5625 C 1.820312 -4.457031 0.875 -6.753906 0.875 -9.453125 C 0.875 -12.148438 1.820312 -14.445312 3.71875 -16.34375 C 5.625 -18.25 7.925781 -19.203125 10.625 -19.203125 C 13.03125 -19.203125 15.144531 -18.425781 16.96875 -16.875 L 14.046875 -14 C 13.023438 -14.75 11.882812 -15.125 10.625 -15.125 C 9.03125 -15.125 7.703125 -14.570312 6.640625 -13.46875 C 5.515625 -12.34375 4.953125 -11.003906 4.953125 -9.453125 C 4.953125 -7.898438 5.515625 -6.5625 6.640625 -5.4375 C 7.742188 -4.332031 9.070312 -3.78125 10.625 -3.78125 C 12.15625 -3.78125 13.492188 -4.332031 14.640625 -5.4375 C 14.671875 -5.476562 14.707031 -5.519531 14.75 -5.5625 L 14.890625 -5.703125 C 15.023438 -5.859375 15.15625 -6.003906 15.28125 -6.140625 C 15.601562 -6.546875 15.820312 -6.894531 15.9375 -7.1875 L 11.578125 -7.1875 L 11.578125 -10.96875 Z M 16.265625 -7.1875 L 16.296875 -7.15625 L 16.296875 -7.1875 Z M 16.265625 -7.1875 "/></g></g></g><g fill="#000000" fill-opacity="1"><g transform="translate(655.928115, 555.650895)"><g/></g></g><g fill="#000000" fill-opacity="1"><g transform="translate(670.095545, 555.650895)"><g><path d="M 12.5625 -14.84375 L 5.40625 -14.84375 L 5.40625 -11.484375 L 10.734375 -11.484375 L 10.734375 -7.421875 L 5.40625 -7.421875 L 5.40625 0 L 0.875 0 L 0.875 -18.90625 L 12.5625 -18.90625 Z M 12.5625 -14.84375 "/></g></g></g><g fill="#000000" fill-opacity="1"><g transform="translate(690.137743, 555.650895)"><g><path d="M 10.1875 -18.828125 C 12.882812 -18.828125 15.179688 -17.875 17.078125 -15.96875 C 18.972656 -14.070312 19.921875 -11.773438 19.921875 -9.078125 C 19.921875 -6.378906 18.972656 -4.082031 17.078125 -2.1875 C 15.179688 -0.28125 12.882812 0.671875 10.1875 0.671875 C 7.488281 0.671875 5.1875 -0.28125 3.28125 -2.1875 C 1.382812 -4.082031 0.4375 -6.378906 0.4375 -9.078125 C 0.4375 -11.773438 1.382812 -14.070312 3.28125 -15.96875 C 5.1875 -17.875 7.488281 -18.828125 10.1875 -18.828125 Z M 14.203125 -5.0625 C 15.304688 -6.164062 15.859375 -7.503906 15.859375 -9.078125 C 15.859375 -10.648438 15.304688 -11.988281 14.203125 -13.09375 C 13.097656 -14.195312 11.757812 -14.75 10.1875 -14.75 C 8.613281 -14.75 7.273438 -14.195312 6.171875 -13.09375 C 5.066406 -11.988281 4.515625 -10.648438 4.515625 -9.078125 C 4.515625 -7.503906 5.066406 -6.164062 6.171875 -5.0625 C 7.316406 -3.957031 8.65625 -3.40625 10.1875 -3.40625 C 11.71875 -3.40625 13.054688 -3.957031 14.203125 -5.0625 Z M 14.203125 -5.0625 "/></g></g></g><g fill="#000000" fill-opacity="1"><g transform="translate(717.101779, 555.650895)"><g><path d="M 16.671875 -12.453125 C 16.671875 -11.234375 16.359375 -10.097656 15.734375 -9.046875 C 14.984375 -7.804688 13.921875 -6.941406 12.546875 -6.453125 L 16.609375 0 L 11.515625 0 L 7.5625 -6.015625 L 5.40625 -6.015625 L 5.40625 0 L 0.875 0 L 0.875 -18.90625 L 9.921875 -18.90625 C 12.078125 -18.90625 13.785156 -18.195312 15.046875 -16.78125 C 16.128906 -15.539062 16.671875 -14.097656 16.671875 -12.453125 Z M 5.40625 -14.84375 L 5.40625 -10.09375 L 9.890625 -10.09375 C 10.515625 -10.09375 11.007812 -10.179688 11.375 -10.359375 C 11.6875 -10.535156 11.910156 -10.703125 12.046875 -10.859375 C 12.234375 -11.085938 12.378906 -11.359375 12.484375 -11.671875 C 12.554688 -11.941406 12.59375 -12.203125 12.59375 -12.453125 C 12.59375 -12.722656 12.554688 -12.992188 12.484375 -13.265625 C 12.367188 -13.578125 12.203125 -13.847656 11.984375 -14.078125 C 11.554688 -14.585938 10.867188 -14.84375 9.921875 -14.84375 Z M 5.40625 -14.84375 "/></g></g></g><g fill="#000000" fill-opacity="1"><g transform="translate(741.244738, 555.650895)"><g/></g></g><g fill="#000000" fill-opacity="1"><g transform="translate(755.412168, 555.650895)"><g><path d="M 10.1875 -18.828125 C 12.882812 -18.828125 15.179688 -17.875 17.078125 -15.96875 C 18.972656 -14.070312 19.921875 -11.773438 19.921875 -9.078125 C 19.921875 -6.378906 18.972656 -4.082031 17.078125 -2.1875 C 15.179688 -0.28125 12.882812 0.671875 10.1875 0.671875 C 7.488281 0.671875 5.1875 -0.28125 3.28125 -2.1875 C 1.382812 -4.082031 0.4375 -6.378906 0.4375 -9.078125 C 0.4375 -11.773438 1.382812 -14.070312 3.28125 -15.96875 C 5.1875 -17.875 7.488281 -18.828125 10.1875 -18.828125 Z M 14.203125 -5.0625 C 15.304688 -6.164062 15.859375 -7.503906 15.859375 -9.078125 C 15.859375 -10.648438 15.304688 -11.988281 14.203125 -13.09375 C 13.097656 -14.195312 11.757812 -14.75 10.1875 -14.75 C 8.613281 -14.75 7.273438 -14.195312 6.171875 -13.09375 C 5.066406 -11.988281 4.515625 -10.648438 4.515625 -9.078125 C 4.515625 -7.503906 5.066406 -6.164062 6.171875 -5.0625 C 7.316406 -3.957031 8.65625 -3.40625 10.1875 -3.40625 C 11.71875 -3.40625 13.054688 -3.957031 14.203125 -5.0625 Z M 14.203125 -5.0625 "/></g></g></g><g fill="#000000" fill-opacity="1"><g transform="translate(782.376204, 555.650895)"><g><path d="M 12.828125 -18.90625 L 17.046875 -18.90625 L 17.046875 -8 C 17.046875 -5.632812 16.15625 -3.664062 14.375 -2.09375 C 12.757812 -0.695312 10.945312 0 8.9375 0 C 6.988281 0 5.222656 -0.675781 3.640625 -2.03125 C 1.796875 -3.582031 0.875 -5.59375 0.875 -8.0625 L 0.875 -18.90625 L 5.09375 -18.90625 L 5.09375 -8.0625 C 5.09375 -6.894531 5.507812 -5.960938 6.34375 -5.265625 C 6.726562 -4.921875 7.179688 -4.660156 7.703125 -4.484375 C 8.148438 -4.304688 8.5625 -4.21875 8.9375 -4.21875 C 9.28125 -4.21875 9.710938 -4.304688 10.234375 -4.484375 C 10.816406 -4.710938 11.273438 -4.984375 11.609375 -5.296875 C 12.035156 -5.679688 12.335938 -6.066406 12.515625 -6.453125 C 12.722656 -6.878906 12.828125 -7.394531 12.828125 -8 Z M 12.828125 -18.90625 "/></g></g></g><g fill="#000000" fill-opacity="1"><g transform="translate(806.897271, 555.650895)"><g><path d="M 16.671875 -12.453125 C 16.671875 -11.234375 16.359375 -10.097656 15.734375 -9.046875 C 14.984375 -7.804688 13.921875 -6.941406 12.546875 -6.453125 L 16.609375 0 L 11.515625 0 L 7.5625 -6.015625 L 5.40625 -6.015625 L 5.40625 0 L 0.875 0 L 0.875 -18.90625 L 9.921875 -18.90625 C 12.078125 -18.90625 13.785156 -18.195312 15.046875 -16.78125 C 16.128906 -15.539062 16.671875 -14.097656 16.671875 -12.453125 Z M 5.40625 -14.84375 L 5.40625 -10.09375 L 9.890625 -10.09375 C 10.515625 -10.09375 11.007812 -10.179688 11.375 -10.359375 C 11.6875 -10.535156 11.910156 -10.703125 12.046875 -10.859375 C 12.234375 -11.085938 12.378906 -11.359375 12.484375 -11.671875 C 12.554688 -11.941406 12.59375 -12.203125 12.59375 -12.453125 C 12.59375 -12.722656 12.554688 -12.992188 12.484375 -13.265625 C 12.367188 -13.578125 12.203125 -13.847656 11.984375 -14.078125 C 11.554688 -14.585938 10.867188 -14.84375 9.921875 -14.84375 Z M 5.40625 -14.84375 "/></g></g></g><g fill="#000000" fill-opacity="1"><g transform="translate(388.43836, 596.130784)"><g><path d="M 16.90625 -2.390625 C 15.0625 -0.859375 12.957031 -0.09375 10.59375 -0.09375 C 7.914062 -0.09375 5.625 -1.039062 3.71875 -2.9375 C 1.820312 -4.84375 0.875 -7.128906 0.875 -9.796875 C 0.875 -12.492188 1.820312 -14.796875 3.71875 -16.703125 C 5.625 -18.597656 7.914062 -19.546875 10.59375 -19.546875 C 12.976562 -19.546875 15.082031 -18.769531 16.90625 -17.21875 L 14 -14.34375 C 13.007812 -15.101562 11.875 -15.484375 10.59375 -15.484375 C 9.039062 -15.484375 7.710938 -14.925781 6.609375 -13.8125 C 5.503906 -12.707031 4.953125 -11.367188 4.953125 -9.796875 C 4.953125 -8.253906 5.503906 -6.925781 6.609375 -5.8125 C 7.710938 -4.707031 9.039062 -4.15625 10.59375 -4.15625 C 11.875 -4.15625 13.007812 -4.535156 14 -5.296875 Z M 16.90625 -2.390625 "/></g></g></g><g fill="#000000" fill-opacity="1"><g transform="translate(413.686487, 596.130784)"><g><path d="M 10.1875 -18.828125 C 12.882812 -18.828125 15.179688 -17.875 17.078125 -15.96875 C 18.972656 -14.070312 19.921875 -11.773438 19.921875 -9.078125 C 19.921875 -6.378906 18.972656 -4.082031 17.078125 -2.1875 C 15.179688 -0.28125 12.882812 0.671875 10.1875 0.671875 C 7.488281 0.671875 5.1875 -0.28125 3.28125 -2.1875 C 1.382812 -4.082031 0.4375 -6.378906 0.4375 -9.078125 C 0.4375 -11.773438 1.382812 -14.070312 3.28125 -15.96875 C 5.1875 -17.875 7.488281 -18.828125 10.1875 -18.828125 Z M 14.203125 -5.0625 C 15.304688 -6.164062 15.859375 -7.503906 15.859375 -9.078125 C 15.859375 -10.648438 15.304688 -11.988281 14.203125 -13.09375 C 13.097656 -14.195312 11.757812 -14.75 10.1875 -14.75 C 8.613281 -14.75 7.273438 -14.195312 6.171875 -13.09375 C 5.066406 -11.988281 4.515625 -10.648438 4.515625 -9.078125 C 4.515625 -7.503906 5.066406 -6.164062 6.171875 -5.0625 C 7.316406 -3.957031 8.65625 -3.40625 10.1875 -3.40625 C 11.71875 -3.40625 13.054688 -3.957031 14.203125 -5.0625 Z M 14.203125 -5.0625 "/></g></g></g><g fill="#000000" fill-opacity="1"><g transform="translate(440.650523, 596.130784)"><g><path d="M 21 -18.90625 L 21 0 L 16.46875 0 L 16.46875 -10.59375 L 10.859375 -7.015625 L 5.40625 -10.5625 L 5.40625 0 L 0.875 0 L 0.875 -18.90625 L 10.90625 -12.421875 Z M 21 -18.90625 "/></g></g></g><g fill="#000000" fill-opacity="1"><g transform="translate(469.126888, 596.130784)"><g><path d="M 21 -18.90625 L 21 0 L 16.46875 0 L 16.46875 -10.59375 L 10.859375 -7.015625 L 5.40625 -10.5625 L 5.40625 0 L 0.875 0 L 0.875 -18.90625 L 10.90625 -12.421875 Z M 21 -18.90625 "/></g></g></g><g fill="#000000" fill-opacity="1"><g transform="translate(497.603253, 596.130784)"><g><path d="M 12.828125 -18.90625 L 17.046875 -18.90625 L 17.046875 -8 C 17.046875 -5.632812 16.15625 -3.664062 14.375 -2.09375 C 12.757812 -0.695312 10.945312 0 8.9375 0 C 6.988281 0 5.222656 -0.675781 3.640625 -2.03125 C 1.796875 -3.582031 0.875 -5.59375 0.875 -8.0625 L 0.875 -18.90625 L 5.09375 -18.90625 L 5.09375 -8.0625 C 5.09375 -6.894531 5.507812 -5.960938 6.34375 -5.265625 C 6.726562 -4.921875 7.179688 -4.660156 7.703125 -4.484375 C 8.148438 -4.304688 8.5625 -4.21875 8.9375 -4.21875 C 9.28125 -4.21875 9.710938 -4.304688 10.234375 -4.484375 C 10.816406 -4.710938 11.273438 -4.984375 11.609375 -5.296875 C 12.035156 -5.679688 12.335938 -6.066406 12.515625 -6.453125 C 12.722656 -6.878906 12.828125 -7.394531 12.828125 -8 Z M 12.828125 -18.90625 "/></g></g></g><g fill="#000000" fill-opacity="1"><g transform="translate(522.124297, 596.130784)"><g><path d="M 13.234375 -18.90625 L 17.78125 -18.90625 L 17.78125 0 L 5.234375 -9.21875 L 5.234375 0 L 0.703125 0 L 0.703125 -18.90625 L 13.234375 -9.25 Z M 13.234375 -18.90625 "/></g></g></g><g fill="#000000" fill-opacity="1"><g transform="translate(547.197919, 596.130784)"><g><path d="M 0.4375 -18.90625 L 4.96875 -18.90625 L 4.96875 0 L 0.4375 0 Z M 0.4375 -18.90625 "/></g></g></g><g fill="#000000" fill-opacity="1"><g transform="translate(559.213167, 596.130784)"><g><path d="M 15.25 -14.375 L 10.328125 -14.375 L 10.328125 0 L 5.796875 0 L 5.796875 -14.375 L 0.875 -14.375 L 0.875 -18.90625 L 15.25 -18.90625 Z M 15.25 -14.375 "/></g></g></g><g fill="#000000" fill-opacity="1"><g transform="translate(581.669303, 596.130784)"><g><path d="M 20.625 -18.90625 L 13 -9.78125 L 13 0 L 8.46875 0 L 8.46875 -9.78125 L 0.875 -18.90625 L 6.84375 -18.90625 L 10.765625 -14.171875 L 14.65625 -18.90625 Z M 20.625 -18.90625 "/></g></g></g><g fill="#000000" fill-opacity="1"><g transform="translate(609.777611, 596.130784)"><g/></g></g><g fill="#000000" fill-opacity="1"><g transform="translate(643.335424, 411.766786)"><g><path d="M 27.640625 20.328125 C 25.492188 20.328125 23.828125 19.550781 22.640625 18 C 20.378906 15.269531 20.082031 12.359375 21.75 9.265625 C 23.769531 5.816406 26.59375 2.488281 30.21875 -0.71875 C 33.84375 -3.925781 37.316406 -6.539062 40.640625 -8.5625 C 41.835938 -9.15625 42.96875 -9.804688 44.03125 -10.515625 C 45.101562 -11.234375 46.234375 -11.945312 47.421875 -12.65625 C 48.492188 -13.25 49.59375 -13.898438 50.71875 -14.609375 C 51.851562 -15.328125 53.015625 -15.984375 54.203125 -16.578125 C 55.984375 -17.648438 57.257812 -19.132812 58.03125 -21.03125 C 58.800781 -22.9375 59.304688 -24.898438 59.546875 -26.921875 C 60.253906 -34.054688 57.101562 -37.738281 50.09375 -37.96875 C 48.070312 -37.96875 46.171875 -37.789062 44.390625 -37.4375 C 43.085938 -37.195312 41.722656 -36.898438 40.296875 -36.546875 C 38.867188 -36.191406 37.5 -35.894531 36.1875 -35.65625 C 34.757812 -35.414062 33.332031 -35.117188 31.90625 -34.765625 C 30.476562 -34.410156 29.113281 -34.113281 27.8125 -33.875 C 26.03125 -33.519531 24.1875 -33.160156 22.28125 -32.796875 C 20.382812 -32.441406 18.484375 -32.265625 16.578125 -32.265625 C 12.660156 -32.265625 9.332031 -33.210938 6.59375 -35.109375 C 3.863281 -37.015625 1.960938 -39.929688 0.890625 -43.859375 C 0.0546875 -46.953125 -0.269531 -50.039062 -0.09375 -53.125 C 0.0820312 -56.21875 0.585938 -59.3125 1.421875 -62.40625 C 2.972656 -69.050781 5.617188 -75.671875 9.359375 -82.265625 C 13.097656 -88.867188 17.550781 -94.992188 22.71875 -100.640625 C 27.894531 -106.285156 33.335938 -111.007812 39.046875 -114.8125 C 42.609375 -117.1875 46.46875 -119.207031 50.625 -120.875 C 54.789062 -122.539062 59.015625 -123.375 63.296875 -123.375 C 68.160156 -123.375 72.460938 -122.15625 76.203125 -119.71875 C 79.953125 -117.28125 81.945312 -113.503906 82.1875 -108.390625 C 82.425781 -105.773438 82.1875 -103.457031 81.46875 -101.4375 C 79.21875 -93.59375 75.476562 -86.164062 70.25 -79.15625 C 68.582031 -77.25 66.585938 -75.375 64.265625 -73.53125 C 61.953125 -71.695312 59.425781 -70.78125 56.6875 -70.78125 C 56.09375 -70.78125 55.53125 -70.867188 55 -71.046875 C 54.46875 -71.222656 54.140625 -71.664062 54.015625 -72.375 C 53.898438 -73.207031 54.257812 -73.984375 55.09375 -74.703125 C 55.332031 -74.941406 55.566406 -75.0625 55.796875 -75.0625 C 56.035156 -75.0625 56.21875 -75.117188 56.34375 -75.234375 C 58.957031 -75.710938 61.507812 -77.140625 64 -79.515625 C 66.5 -81.890625 68.785156 -84.738281 70.859375 -88.0625 C 72.941406 -91.394531 74.609375 -94.753906 75.859375 -98.140625 C 77.109375 -101.523438 77.734375 -104.46875 77.734375 -106.96875 C 77.734375 -111.25 76.304688 -114.28125 73.453125 -116.0625 C 70.597656 -117.84375 67.269531 -118.734375 63.46875 -118.734375 C 60.132812 -118.734375 56.6875 -118.078125 53.125 -116.765625 C 49.5625 -115.460938 46.410156 -113.921875 43.671875 -112.140625 C 24.660156 -99.898438 12.003906 -82.785156 5.703125 -60.796875 C 5.109375 -58.421875 4.722656 -56.101562 4.546875 -53.84375 C 4.367188 -51.582031 4.515625 -49.320312 4.984375 -47.0625 C 6.179688 -40.164062 9.925781 -36.71875 16.21875 -36.71875 C 16.695312 -36.71875 17.054688 -36.78125 17.296875 -36.90625 C 17.410156 -36.90625 17.554688 -36.90625 17.734375 -36.90625 C 17.910156 -36.90625 18.0625 -36.90625 18.1875 -36.90625 C 18.894531 -37.019531 19.601562 -37.164062 20.3125 -37.34375 C 21.03125 -37.53125 21.75 -37.679688 22.46875 -37.796875 C 23.175781 -37.910156 23.882812 -38.023438 24.59375 -38.140625 C 25.3125 -38.265625 26.03125 -38.390625 26.75 -38.515625 C 28.050781 -38.742188 29.382812 -39.035156 30.75 -39.390625 C 32.113281 -39.753906 33.453125 -40.054688 34.765625 -40.296875 C 36.066406 -40.523438 37.367188 -40.789062 38.671875 -41.09375 C 39.984375 -41.394531 41.296875 -41.660156 42.609375 -41.890625 C 44.035156 -42.253906 45.460938 -42.460938 46.890625 -42.515625 C 48.316406 -42.578125 49.800781 -42.609375 51.34375 -42.609375 C 55.5 -42.367188 58.734375 -40.972656 61.046875 -38.421875 C 63.367188 -35.867188 64.472656 -32.507812 64.359375 -28.34375 C 64.359375 -27.632812 64.238281 -26.800781 64 -25.84375 C 63.757812 -24.894531 63.820312 -24.003906 64.1875 -23.171875 L 64.890625 -23.171875 C 65.847656 -23.171875 66.625 -23.410156 67.21875 -23.890625 C 67.445312 -24.128906 67.738281 -24.335938 68.09375 -24.515625 C 68.457031 -24.691406 68.757812 -24.835938 69 -24.953125 L 92.703125 -37.4375 C 92.941406 -37.5625 93.238281 -37.679688 93.59375 -37.796875 C 93.945312 -37.910156 94.304688 -38.03125 94.671875 -38.15625 C 94.910156 -38.269531 95.207031 -38.382812 95.5625 -38.5 C 95.914062 -38.625 96.210938 -38.742188 96.453125 -38.859375 C 96.566406 -38.984375 96.800781 -39.046875 97.15625 -39.046875 C 97.757812 -39.046875 98.238281 -38.75 98.59375 -38.15625 C 98.707031 -37.914062 98.796875 -37.675781 98.859375 -37.4375 C 98.921875 -37.195312 98.953125 -36.957031 98.953125 -36.71875 C 98.953125 -36.125 98.769531 -35.710938 98.40625 -35.484375 C 97.8125 -34.890625 97.160156 -34.410156 96.453125 -34.046875 C 96.097656 -33.929688 95.738281 -33.785156 95.375 -33.609375 C 95.019531 -33.429688 94.664062 -33.222656 94.3125 -32.984375 C 92.050781 -31.796875 89.757812 -30.578125 87.4375 -29.328125 C 85.125 -28.078125 82.78125 -26.800781 80.40625 -25.5 C 75.65625 -22.882812 70.84375 -20.382812 65.96875 -18 C 62.519531 -16.21875 60.019531 -13.664062 58.46875 -10.34375 C 57.40625 -7.96875 55.890625 -5.234375 53.921875 -2.140625 C 51.960938 0.953125 49.707031 4.015625 47.15625 7.046875 C 44.601562 10.078125 41.925781 12.75 39.125 15.0625 C 36.332031 17.382812 33.691406 18.898438 31.203125 19.609375 C 30.242188 20.085938 29.054688 20.328125 27.640625 20.328125 Z M 27.984375 15.6875 C 28.460938 15.6875 28.757812 15.628906 28.875 15.515625 C 30.070312 15.035156 31.265625 14.441406 32.453125 13.734375 C 36.253906 11.472656 39.9375 8.234375 43.5 4.015625 C 47.0625 -0.203125 49.675781 -4.691406 51.34375 -9.453125 C 48.84375 -8.023438 45.722656 -6.09375 41.984375 -3.65625 C 38.242188 -1.21875 34.796875 1.363281 31.640625 4.09375 C 28.492188 6.832031 26.445312 9.507812 25.5 12.125 C 25.257812 13.070312 25.492188 13.960938 26.203125 14.796875 C 26.796875 15.390625 27.390625 15.6875 27.984375 15.6875 Z M 27.984375 15.6875 "/></g></g></g></svg>